# xmcd CD database file
#
# Track frame offsets:
#	150
#	23351
#	52882
#	87916
#	115117
#	142383
#	163248
#	171341
#	195509
#	224656
#
# Disc length: 3251 seconds
#
# Revision: 0
# Processed by: cddbd v1.5.1PL2 Copyright (c) Steve Scherf et al.
# Submitted via: CDex 1.51
#
DISCID=8c0cb10a
DTITLE=Jacek Niedziela - Bassville
DYEAR=2004
DGENRE=Jazz
TTITLE0=Raymondo Bassmondo
TTITLE1=Do You Know What it Means to Miss New Orleans
TTITLE2=Besame Mucho
TTITLE3=Variations on F Chopins Grande Valse Brillante
TTITLE4=Tango 2004
TTITLE5=Night and Day
TTITLE6=Capriccio no.2
TTITLE7=Moonlight Becomes You
TTITLE8=And I lLove Her
TTITLE9=Money Can"t Buy Me Love
EXTD=YEAR: 2004
EXTT0=
EXTT1=
EXTT2=
EXTT3=
EXTT4=
EXTT5=
EXTT6=
EXTT7=
EXTT8=
EXTT9=
PLAYORDER=
